<?xml version="1.0" standalone="no"?><!DOCTYPE svg PUBLIC "-//W3C//DTD SVG 1.1//EN" "http://www.w3.org/Graphics/SVG/1.1/DTD/svg11.dtd"><svg t="1639378950971" class="icon" viewBox="0 0 1024 1024" version="1.1" xmlns="http://www.w3.org/2000/svg" p-id="2544" xmlns:xlink="http://www.w3.org/1999/xlink" width="200" height="200"><defs><style type="text/css"></style></defs><path d="M544.67 121.47s52.33 41.61 48.58 122.17c-3.86 82.22-15.38 172.91-75 190.58a13.69 13.69 0 0 1-4 0.57h-2.21a13.69 13.69 0 0 1-4-0.57c-59.58-17.67-71.26-108.35-74.95-190.58-3.59-80 48.58-122.17 48.58-122.17l31.45 88.74 31.45-88.74m-48.79-50l-33 26.67c-1.75 1.41-17.48 14.5-32.35 38.74-19.62 32-29.07 69.39-27.33 108.1 1.69 37.68 5.24 86.17 17.82 127 15.23 49.44 41.66 80.06 78.57 91a44.05 44.05 0 0 0 12.5 1.81h2.21a44.05 44.05 0 0 0 12.5-1.81c36.9-10.94 63.31-41.57 78.52-91 12.46-40.55 16.1-89.12 17.87-126.91 1.83-39-7.61-76.49-27.3-108.44C581 112.35 565.09 99.38 563.33 98l-32.9-26.15-14 39.62-3.17 9-3.18-9-14.16-40z" fill="#F26140" p-id="2545"></path><path d="M218.09 345.09a162.26 162.26 0 0 1 57.64 10.79c77 29.08 159.7 68.05 158.09 130.18a13.92 13.92 0 0 1-1.05 5 14.14 14.14 0 0 1-2.08 4.66c-17.07 24.82-47 33.64-82.31 33.64-37.55 0-81.23-10-122.11-21.25-77.17-21.3-101.18-84-101.18-84l94.12-2.49-74.68-57.33s29-19.24 73.56-19.24m0-30c-52.06 0-86.39 21.75-90.13 24.23l-35 23.22 33.33 25.59 7.54 5.78-9.5 0.25-42.4 1.12 15.18 39.61c0.8 2.09 8.38 21.1 26.85 42.73 24.38 28.55 57 49.09 94.36 59.4 37.66 10.4 86.47 22.33 130.09 22.33 49.73 0 85.74-15.69 107-46.64a52.48 52.48 0 0 0 8.41-25.88c1-38.47-20-73.05-62.32-102.8-34.71-24.38-79.78-42.85-115.17-56.22a192.77 192.77 0 0 0-68.24-12.72z" fill="#F26140" p-id="2546"></path><path d="M434.55 578.56a66.94 66.94 0 0 1 22.45 3.85 24.4 24.4 0 0 1 8.21 6c37.81 49.32-6 129.55-51.39 198.25-44.1 66.81-111.11 70.28-111.11 70.28l26.73-90.28-77.61 53.31S234 755.49 284.37 692.54c44.92-56.1 98.35-114 150.18-114m0-30c-31 0-62.73 14.07-97 43-29.38 24.79-56.36 56.95-76.57 82.2-24.4 30.47-38.81 66.35-41.66 103.77-2.19 28.49 3.03 48.28 3.68 50.49l11.25 40.49 34.64-23.79 7.83-5.38-2.72 9.07-12 40.67 42.36-2.2c2.24-0.11 22.66-1.45 48.94-12.33 34.68-14.36 64.3-39 85.65-71.38 20.78-31.48 46.41-72.8 60.23-113.21 16.74-49 13.35-89.27-10.08-119.82a52.21 52.21 0 0 0-22-16 97.07 97.07 0 0 0-32.48-5.57z" fill="#F26140" p-id="2547"></path><path d="M586.55 580.3c51.84 0 105.36 57.8 150.15 114 49.92 62.6 32.51 127.39 32.51 127.39l-77.6-53.31 26.71 90.28s-66.81-2.88-111.11-70.28C562 719.57 518 639.44 555.83 590.12a24.25 24.25 0 0 1 8.21-6 67.11 67.11 0 0 1 22.51-3.85m0-30a97.2 97.2 0 0 0-32.55 5.6 52.4 52.4 0 0 0-22 16c-23.41 30.53-26.78 70.84-10 119.79 13.75 40.13 39.36 81.56 60.13 113.18 21.44 32.62 51.12 57.41 85.83 71.68 26.34 10.84 46.81 12 49.06 12.1l42 1.81-11.93-40.3-2.69-9.13 7.83 5.38 34.95 24 11-41c0.58-2.16 5.62-22 3.39-50.35-2.94-37.43-17.26-73.23-41.42-103.52-29.85-37.43-53.46-62.81-76.55-82.29-34.3-28.93-66.05-43-97.06-43z" fill="#F26140" p-id="2548"></path><path d="M806 348.07c44.54 0 73.88 19.08 73.88 19.08l-74.68 57.33 94.09 2.52s-23.39 62.66-101.18 83.95c-41 11.22-84.67 21.19-122.25 21.19-35.26 0-65.12-8.79-82.17-33.58a14.1 14.1 0 0 1-2.07-4.66 13.87 13.87 0 0 1-1.06-5c-1.61-62.12 81-101.26 158.09-130.18A162.33 162.33 0 0 1 806 348.07m0-30a192.8 192.8 0 0 0-67.86 12.54c-35.31 13.26-80.33 31.62-115.27 56.19-42.31 29.76-63.27 64.37-62.27 102.86a52.22 52.22 0 0 0 8.4 25.87c21.25 30.91 57.22 46.58 106.88 46.58 43.35 0 92.34-11.89 130.18-22.25 37.65-10.31 70.39-30.88 94.69-59.47 18.45-21.71 25.88-40.82 26.67-42.93l14.7-39.37-42-1.11-9.49-0.25 7.53-5.79 33.64-25.82L896.21 342c-3.77-2.45-38.31-23.93-90.24-23.93z" fill="#F26140" p-id="2549"></path><path d="M511.73 454.61a63.66 63.66 0 1 1-63.65 63.66 63.66 63.66 0 0 1 63.65-63.66m0-30a93.66 93.66 0 1 0 93.66 93.66 93.76 93.76 0 0 0-93.66-93.66z" fill="#F26140" p-id="2550"></path><path d="M544.67 121.47l-31.45 88.74-31.45-88.74s-52.17 42.19-48.58 122.17c3.69 82.23 15.37 172.91 74.95 190.58a24.12 24.12 0 0 0 10.15 0c59.58-17.67 71.1-108.36 75-190.58 3.71-80.56-48.62-122.17-48.62-122.17zM144.53 364.33l74.68 57.33-94.12 2.49s24 62.65 101.18 84c79.35 21.91 169.2 38.81 204.42-12.39a24.28 24.28 0 0 0 3.14-9.65c1.6-62.13-81.09-101.1-158.1-130.18-75.45-28.54-131.2 8.4-131.2 8.4zM251.86 819.93l77.6-53.31-26.71 90.28s67-3.47 111.1-70.28c45.36-68.7 89.2-148.93 51.39-198.25a24.4 24.4 0 0 0-8.21-6c-58.59-20.72-121.21 45.88-172.67 110.13-50.36 62.99-32.5 127.43-32.5 127.43zM718.32 858.64l-26.71-90.28 77.6 53.31s17.41-64.79-32.51-127.39C685.38 629.92 622.63 563.43 564 584.15a24.25 24.25 0 0 0-8.21 6C518 639.44 562 719.57 607.21 788.36c44.3 67.4 111.11 70.28 111.11 70.28zM899.29 427l-94.12-2.49 74.68-57.33s-56.24-36.58-131.2-8.45C671.58 387.62 589 426.76 590.56 488.88a13.87 13.87 0 0 0 1.06 5 14.1 14.1 0 0 0 2.07 4.66c35.22 51.2 125 34.13 204.42 12.39C875.9 489.63 899.29 427 899.29 427z" fill="#FFFFFF" p-id="2551"></path><path d="M511.73 518.27m-63.66 0a63.66 63.66 0 1 0 127.32 0 63.66 63.66 0 1 0-127.32 0Z" fill="#FFFFFF" p-id="2552"></path></svg>