<?xml version="1.0" standalone="no"?><!DOCTYPE svg PUBLIC "-//W3C//DTD SVG 1.1//EN" "http://www.w3.org/Graphics/SVG/1.1/DTD/svg11.dtd"><svg t="1638433825554" class="icon" viewBox="0 0 1024 1024" version="1.1" xmlns="http://www.w3.org/2000/svg" p-id="617" xmlns:xlink="http://www.w3.org/1999/xlink" width="200" height="200"><defs><style type="text/css"></style></defs><path d="M512 64C759.04 64 960 264.96 960 512S759.04 960 512 960s-448-200.96-448-448 200.96-448 448-448z m0 832.00000001c211.74400001 0 384.00000001-172.256 384.00000001-384.00000001s-172.256-384.00000001-384.00000001-384.00000001-384.00000001 172.256-384.00000001 384.00000001 172.256 384.00000001 384.00000001 384.00000001z" p-id="618"></path><path d="M291.04 522.848c0.032 0.128 0.192 0.256 0.256 0.384 1.53600001 3.616 3.648 7.072 6.592 10.048 0.032 0.032 0.064 0.032 0.096 0.064s0.032 0.064 0.064 0.096L456.96 692.8c12.48 12.48 32.704 12.576 45.248 0.064 12.51200001-12.48 12.544-32.736 0.064-45.248L398.944 544 704 544c17.664 0 32-14.336 32.00000001-32s-14.336-32-32.00000001-32l-306.752 0L503.36 375.04c12.576-12.448 12.67200001-32.672 0.256-45.248-6.24-6.336-14.496-9.504-22.75199999-9.504-8.128 0-16.256 3.10399999-22.49600001 9.248l-160.256 158.496c-9.43999999 9.376-11.84 23.2-7.072 34.816z" p-id="619"></path></svg>